<mxfile host="app.diagrams.net" modified="2024-06-17T21:34:37.167Z" agent="Mozilla/5.0 (Windows NT 10.0; Win64; x64) AppleWebKit/537.36 (KHTML, like Gecko) Chrome/124.0.0.0 Safari/537.36 OPR/110.0.0.0 (Edition Yx 05)" version="24.5.5" etag="QG2aaL2W4-Eb6R5E3sT-" type="github">
  <diagram name="Страница — 1" id="c4WtfG7bDNMfRZFbhqXy">
    <mxGraphModel>
      <root>
        <mxCell id="0" />
        <mxCell id="1" parent="0" />
      </root>
    </mxGraphModel>
  </diagram>
</mxfile>
